<mxfile host="app.diagrams.net" modified="2022-10-18T01:45:14.467Z" agent="5.0 (Macintosh; Intel Mac OS X 10_15_7) AppleWebKit/537.36 (KHTML, like Gecko) Chrome/106.0.0.0 Safari/537.36" etag="AA7DGcz2R8mkEM4BwzN_" version="20.3.7" type="github">
  <diagram id="1njE7rwqGI7m8ewHNlN3" name="Page-1">
    <mxGraphModel dx="1425" dy="779" grid="1" gridSize="10" guides="1" tooltips="1" connect="1" arrows="1" fold="1" page="1" pageScale="1" pageWidth="827" pageHeight="1169" math="0" shadow="0">
      <root>
        <mxCell id="0" />
        <mxCell id="1" parent="0" />
        <mxCell id="vLeJN7Wee_utG59eqZ4O-2" style="edgeStyle=orthogonalEdgeStyle;rounded=0;orthogonalLoop=1;jettySize=auto;html=1;exitX=0.5;exitY=1;exitDx=0;exitDy=0;fontSize=8;entryX=0.5;entryY=0;entryDx=0;entryDy=0;" edge="1" parent="1" source="vLeJN7Wee_utG59eqZ4O-1" target="vLeJN7Wee_utG59eqZ4O-3">
          <mxGeometry relative="1" as="geometry">
            <mxPoint x="209.80952380952385" y="70" as="targetPoint" />
          </mxGeometry>
        </mxCell>
        <mxCell id="vLeJN7Wee_utG59eqZ4O-1" value="&lt;font style=&quot;font-size: 8px;&quot;&gt;upload attachment&lt;/font&gt;" style="rounded=0;whiteSpace=wrap;html=1;" vertex="1" parent="1">
          <mxGeometry x="170" y="20" width="80" height="30" as="geometry" />
        </mxCell>
        <mxCell id="vLeJN7Wee_utG59eqZ4O-5" style="edgeStyle=orthogonalEdgeStyle;rounded=0;orthogonalLoop=1;jettySize=auto;html=1;exitX=0.5;exitY=1;exitDx=0;exitDy=0;entryX=0.5;entryY=0;entryDx=0;entryDy=0;fontSize=8;" edge="1" parent="1" source="vLeJN7Wee_utG59eqZ4O-3">
          <mxGeometry relative="1" as="geometry">
            <mxPoint x="210" y="140" as="targetPoint" />
          </mxGeometry>
        </mxCell>
        <mxCell id="vLeJN7Wee_utG59eqZ4O-7" value="Y" style="edgeLabel;html=1;align=center;verticalAlign=middle;resizable=0;points=[];fontSize=8;" vertex="1" connectable="0" parent="vLeJN7Wee_utG59eqZ4O-5">
          <mxGeometry x="-0.6762" relative="1" as="geometry">
            <mxPoint y="5" as="offset" />
          </mxGeometry>
        </mxCell>
        <mxCell id="vLeJN7Wee_utG59eqZ4O-8" style="edgeStyle=orthogonalEdgeStyle;rounded=0;orthogonalLoop=1;jettySize=auto;html=1;entryX=1.023;entryY=0.483;entryDx=0;entryDy=0;fontSize=8;entryPerimeter=0;" edge="1" parent="1" source="vLeJN7Wee_utG59eqZ4O-3" target="vLeJN7Wee_utG59eqZ4O-24">
          <mxGeometry relative="1" as="geometry">
            <mxPoint x="360" y="120" as="targetPoint" />
            <Array as="points">
              <mxPoint x="340" y="90" />
              <mxPoint x="340" y="409" />
            </Array>
          </mxGeometry>
        </mxCell>
        <mxCell id="vLeJN7Wee_utG59eqZ4O-9" value="N" style="edgeLabel;html=1;align=center;verticalAlign=middle;resizable=0;points=[];fontSize=8;" vertex="1" connectable="0" parent="vLeJN7Wee_utG59eqZ4O-8">
          <mxGeometry x="-0.0786" relative="1" as="geometry">
            <mxPoint as="offset" />
          </mxGeometry>
        </mxCell>
        <mxCell id="vLeJN7Wee_utG59eqZ4O-3" value="is virusscan enabled&amp;nbsp;" style="rhombus;whiteSpace=wrap;html=1;fontSize=8;" vertex="1" parent="1">
          <mxGeometry x="160" y="70" width="100" height="40" as="geometry" />
        </mxCell>
        <mxCell id="vLeJN7Wee_utG59eqZ4O-15" style="edgeStyle=orthogonalEdgeStyle;rounded=0;orthogonalLoop=1;jettySize=auto;html=1;exitX=0.5;exitY=1;exitDx=0;exitDy=0;fontSize=8;" edge="1" parent="1" source="vLeJN7Wee_utG59eqZ4O-10">
          <mxGeometry relative="1" as="geometry">
            <mxPoint x="210" y="260" as="targetPoint" />
          </mxGeometry>
        </mxCell>
        <mxCell id="vLeJN7Wee_utG59eqZ4O-10" value="&lt;font style=&quot;font-size: 8px;&quot;&gt;init singleton&amp;nbsp;&lt;/font&gt;&lt;span style=&quot;font-size: 8px;&quot;&gt;clamav socket connection&lt;/span&gt;" style="rounded=0;whiteSpace=wrap;html=1;" vertex="1" parent="1">
          <mxGeometry x="80" y="190" width="80" height="30" as="geometry" />
        </mxCell>
        <mxCell id="vLeJN7Wee_utG59eqZ4O-13" style="edgeStyle=orthogonalEdgeStyle;rounded=0;orthogonalLoop=1;jettySize=auto;html=1;entryX=0.5;entryY=0;entryDx=0;entryDy=0;fontSize=8;exitX=0;exitY=0.5;exitDx=0;exitDy=0;" edge="1" parent="1" source="vLeJN7Wee_utG59eqZ4O-12" target="vLeJN7Wee_utG59eqZ4O-10">
          <mxGeometry relative="1" as="geometry" />
        </mxCell>
        <mxCell id="vLeJN7Wee_utG59eqZ4O-26" value="N" style="edgeLabel;html=1;align=center;verticalAlign=middle;resizable=0;points=[];fontSize=8;" vertex="1" connectable="0" parent="vLeJN7Wee_utG59eqZ4O-13">
          <mxGeometry x="-0.402" relative="1" as="geometry">
            <mxPoint as="offset" />
          </mxGeometry>
        </mxCell>
        <mxCell id="vLeJN7Wee_utG59eqZ4O-14" style="edgeStyle=orthogonalEdgeStyle;rounded=0;orthogonalLoop=1;jettySize=auto;html=1;exitX=0.5;exitY=1;exitDx=0;exitDy=0;fontSize=8;" edge="1" parent="1" source="vLeJN7Wee_utG59eqZ4O-12">
          <mxGeometry relative="1" as="geometry">
            <mxPoint x="210" y="260" as="targetPoint" />
          </mxGeometry>
        </mxCell>
        <mxCell id="vLeJN7Wee_utG59eqZ4O-27" value="Y" style="edgeLabel;html=1;align=center;verticalAlign=middle;resizable=0;points=[];fontSize=8;" vertex="1" connectable="0" parent="vLeJN7Wee_utG59eqZ4O-14">
          <mxGeometry x="-0.4878" relative="1" as="geometry">
            <mxPoint as="offset" />
          </mxGeometry>
        </mxCell>
        <mxCell id="vLeJN7Wee_utG59eqZ4O-12" value="has clamav socket connection" style="rhombus;whiteSpace=wrap;html=1;fontSize=8;" vertex="1" parent="1">
          <mxGeometry x="160" y="140" width="100" height="40" as="geometry" />
        </mxCell>
        <mxCell id="vLeJN7Wee_utG59eqZ4O-18" style="edgeStyle=orthogonalEdgeStyle;rounded=0;orthogonalLoop=1;jettySize=auto;html=1;exitX=0.5;exitY=1;exitDx=0;exitDy=0;entryX=0.5;entryY=0;entryDx=0;entryDy=0;fontSize=8;" edge="1" parent="1" source="vLeJN7Wee_utG59eqZ4O-16" target="vLeJN7Wee_utG59eqZ4O-17">
          <mxGeometry relative="1" as="geometry" />
        </mxCell>
        <mxCell id="vLeJN7Wee_utG59eqZ4O-16" value="&lt;font style=&quot;font-size: 8px;&quot;&gt;upload attachment to ff service&lt;/font&gt;" style="rounded=0;whiteSpace=wrap;html=1;" vertex="1" parent="1">
          <mxGeometry x="170" y="260" width="80" height="30" as="geometry" />
        </mxCell>
        <mxCell id="vLeJN7Wee_utG59eqZ4O-19" style="edgeStyle=orthogonalEdgeStyle;rounded=0;orthogonalLoop=1;jettySize=auto;html=1;fontSize=8;entryX=1;entryY=0.5;entryDx=0;entryDy=0;entryPerimeter=0;" edge="1" parent="1" source="vLeJN7Wee_utG59eqZ4O-17" target="vLeJN7Wee_utG59eqZ4O-21">
          <mxGeometry relative="1" as="geometry">
            <mxPoint x="330" y="340" as="targetPoint" />
          </mxGeometry>
        </mxCell>
        <mxCell id="vLeJN7Wee_utG59eqZ4O-22" value="N" style="edgeLabel;html=1;align=center;verticalAlign=middle;resizable=0;points=[];fontSize=8;" vertex="1" connectable="0" parent="vLeJN7Wee_utG59eqZ4O-19">
          <mxGeometry x="-0.7395" relative="1" as="geometry">
            <mxPoint x="-3" as="offset" />
          </mxGeometry>
        </mxCell>
        <mxCell id="vLeJN7Wee_utG59eqZ4O-23" style="edgeStyle=orthogonalEdgeStyle;rounded=0;orthogonalLoop=1;jettySize=auto;html=1;exitX=0.5;exitY=1;exitDx=0;exitDy=0;fontSize=8;" edge="1" parent="1" source="vLeJN7Wee_utG59eqZ4O-17">
          <mxGeometry relative="1" as="geometry">
            <mxPoint x="210" y="390" as="targetPoint" />
          </mxGeometry>
        </mxCell>
        <mxCell id="vLeJN7Wee_utG59eqZ4O-28" value="Y" style="edgeLabel;html=1;align=center;verticalAlign=middle;resizable=0;points=[];fontSize=8;" vertex="1" connectable="0" parent="vLeJN7Wee_utG59eqZ4O-23">
          <mxGeometry x="-0.3318" relative="1" as="geometry">
            <mxPoint as="offset" />
          </mxGeometry>
        </mxCell>
        <mxCell id="vLeJN7Wee_utG59eqZ4O-29" value="" style="edgeStyle=orthogonalEdgeStyle;rounded=0;orthogonalLoop=1;jettySize=auto;html=1;fontSize=8;" edge="1" parent="1" source="vLeJN7Wee_utG59eqZ4O-17" target="vLeJN7Wee_utG59eqZ4O-21">
          <mxGeometry relative="1" as="geometry" />
        </mxCell>
        <mxCell id="vLeJN7Wee_utG59eqZ4O-30" value="N" style="edgeLabel;html=1;align=center;verticalAlign=middle;resizable=0;points=[];fontSize=8;" vertex="1" connectable="0" parent="vLeJN7Wee_utG59eqZ4O-29">
          <mxGeometry x="-0.6372" relative="1" as="geometry">
            <mxPoint as="offset" />
          </mxGeometry>
        </mxCell>
        <mxCell id="vLeJN7Wee_utG59eqZ4O-17" value="virus check passed" style="rhombus;whiteSpace=wrap;html=1;fontSize=8;" vertex="1" parent="1">
          <mxGeometry x="160" y="320" width="100" height="40" as="geometry" />
        </mxCell>
        <mxCell id="vLeJN7Wee_utG59eqZ4O-21" value="Throw excption" style="strokeWidth=2;html=1;shape=mxgraph.flowchart.terminator;whiteSpace=wrap;fontSize=8;" vertex="1" parent="1">
          <mxGeometry x="50" y="322.5" width="80" height="35" as="geometry" />
        </mxCell>
        <mxCell id="vLeJN7Wee_utG59eqZ4O-25" value="N" style="edgeStyle=orthogonalEdgeStyle;rounded=0;orthogonalLoop=1;jettySize=auto;html=1;entryX=0.5;entryY=1;entryDx=0;entryDy=0;entryPerimeter=0;fontSize=8;" edge="1" parent="1" source="vLeJN7Wee_utG59eqZ4O-24" target="vLeJN7Wee_utG59eqZ4O-21">
          <mxGeometry x="-0.1667" relative="1" as="geometry">
            <mxPoint as="offset" />
          </mxGeometry>
        </mxCell>
        <mxCell id="vLeJN7Wee_utG59eqZ4O-32" style="edgeStyle=orthogonalEdgeStyle;rounded=0;orthogonalLoop=1;jettySize=auto;html=1;exitX=0.5;exitY=1;exitDx=0;exitDy=0;entryX=0.5;entryY=0;entryDx=0;entryDy=0;entryPerimeter=0;fontSize=8;" edge="1" parent="1" source="vLeJN7Wee_utG59eqZ4O-24" target="vLeJN7Wee_utG59eqZ4O-31">
          <mxGeometry relative="1" as="geometry" />
        </mxCell>
        <mxCell id="vLeJN7Wee_utG59eqZ4O-24" value="File name, file size check passed" style="rhombus;whiteSpace=wrap;html=1;fontSize=8;" vertex="1" parent="1">
          <mxGeometry x="160" y="390" width="100" height="40" as="geometry" />
        </mxCell>
        <mxCell id="vLeJN7Wee_utG59eqZ4O-31" value="Upload to NFS" style="strokeWidth=2;html=1;shape=mxgraph.flowchart.terminator;whiteSpace=wrap;fontSize=8;" vertex="1" parent="1">
          <mxGeometry x="160" y="460" width="100" height="40" as="geometry" />
        </mxCell>
      </root>
    </mxGraphModel>
  </diagram>
</mxfile>
